<?xml version="1.0" encoding="UTF-8"?>
<svg version="1.1" xmlns="http://www.w3.org/2000/svg" width="500" height="500">
<path d="M0 0 C0.96703857 0.00499512 1.93407715 0.00999023 2.93041992 0.01513672 C4.15607666 0.03334473 5.3817334 0.05155273 6.64453125 0.0703125 C12.49171875 0.1321875 12.49171875 0.1321875 18.45703125 0.1953125 C18.45703125 9.4353125 18.45703125 18.6753125 18.45703125 28.1953125 C14.45703125 28.1953125 10.45703125 28.1953125 6.45703125 28.1953125 C5.57273437 28.23011719 4.6884375 28.26492188 3.77734375 28.30078125 C2.19566406 28.34138672 2.19566406 28.34138672 0.58203125 28.3828125 C-0.99191406 28.43501953 -0.99191406 28.43501953 -2.59765625 28.48828125 C-5.8840191 28.16138839 -7.22455665 27.50812457 -9.54296875 25.1953125 C-9.54296875 24.5353125 -9.54296875 23.8753125 -9.54296875 23.1953125 C-10.20296875 23.1953125 -10.86296875 23.1953125 -11.54296875 23.1953125 C-13.41490861 17.90983524 -14.09652807 13.66606068 -12.54296875 8.1953125 C-9.2629622 2.29130071 -6.79863893 -0.07194327 0 0 Z M0.26953125 9.8203125 C-1.84905094 12.11159786 -1.84905094 12.11159786 -1.60546875 15.3203125 C-0.80500283 18.34562046 -0.80500283 18.34562046 1.76953125 19.7578125 C4.45494934 20.44290509 4.45494934 20.44290509 6.76953125 19.1953125 C8.71221436 17.23809524 8.71221436 17.23809524 8.95703125 14.1953125 C8.7428067 11.11781407 8.7428067 11.11781407 6.58203125 9.3203125 C3.58395382 7.73309504 3.0229516 7.77491453 0.26953125 9.8203125 Z " fill="#6A43CB" transform="translate(332.54296875,249.8046875)"/>
<path d="M0 0 C4.33333333 0 8.66666667 0 13 0 C13.83273438 -0.05800781 14.66546875 -0.11601562 15.5234375 -0.17578125 C16.46445313 -0.22089844 17.40546875 -0.26601562 18.375 -0.3125 C19.77878906 -0.39951172 19.77878906 -0.39951172 21.2109375 -0.48828125 C24 0 24 0 26.83203125 1.78125 C30.10635781 6.6425925 29.53943457 11.09724003 29.3125 16.8125 C29.28994141 17.88693359 29.26738281 18.96136719 29.24414062 20.06835938 C29.18537441 22.71283888 29.09569833 25.35659933 29 28 C25.7 28 22.4 28 19 28 C18.67 22.06 18.34 16.12 18 10 C15.525 9.505 15.525 9.505 13 9 C10.64891442 12.70821628 10.56844942 16.48605238 10.375 20.75 C10.31699219 21.79607422 10.31699219 21.79607422 10.2578125 22.86328125 C10.16401376 24.57510818 10.08093826 26.28751682 10 28 C6.7 28 3.4 28 0 28 C0 18.76 0 9.52 0 0 Z " fill="#DEDEDE" transform="translate(117,250)"/>
<path d="M0 0 C4 0 8 0 12 0 C12.81210937 -0.02320313 13.62421875 -0.04640625 14.4609375 -0.0703125 C15.42257812 -0.08835938 16.38421875 -0.10640625 17.375 -0.125 C18.33148438 -0.14820313 19.28796875 -0.17140625 20.2734375 -0.1953125 C23.11299849 0.00809445 24.6445869 0.43318335 27 2 C29.23413013 5.35119519 29.23847762 6.4177755 29.1953125 10.32421875 C29.18886719 11.35224609 29.18242187 12.38027344 29.17578125 13.43945312 C29.15902344 14.51130859 29.14226562 15.58316406 29.125 16.6875 C29.11597656 17.77095703 29.10695313 18.85441406 29.09765625 19.97070312 C29.07407452 22.64722948 29.03820336 25.32364241 29 28 C25.7 28 22.4 28 19 28 C19 22.06 19 16.12 19 10 C18.34 10 17.68 10 17 10 C17 9.34 17 8.68 17 8 C13.27385847 9.11854586 13.27385847 9.11854586 11 12 C10.7677354 14.71262116 10.58063765 17.40773126 10.4375 20.125 C10.39431641 20.87910156 10.35113281 21.63320313 10.30664062 22.41015625 C10.2005168 24.27321888 10.09974999 26.13658524 10 28 C6.7 28 3.4 28 0 28 C0 18.76 0 9.52 0 0 Z " fill="#6C46CF" transform="translate(356,250)"/>
<path d="M0 0 C3.96 0 7.92 0 12 0 C12.33 0.99 12.66 1.98 13 3 C13.66 3 14.32 3 15 3 C15 3.66 15 4.32 15 5 C15.66 5 16.32 5 17 5 C17.309375 4.360625 17.61875 3.72125 17.9375 3.0625 C19 1 19 1 20 0 C22.01964199 -0.07244053 24.04167124 -0.08377188 26.0625 -0.0625 C27.16722656 -0.05347656 28.27195313 -0.04445312 29.41015625 -0.03515625 C30.26480469 -0.02355469 31.11945313 -0.01195312 32 0 C32 0.66 32 1.32 32 2 C31.34 2 30.68 2 30 2 C29.7525 2.721875 29.505 3.44375 29.25 4.1875 C28 7 28 7 25.8125 9.5625 C23.8235368 11.75327216 23.8235368 11.75327216 23.9375 13.9375 C25.51679001 17.00318061 27.77096184 19.37087807 30 22 C30 22.66 30 23.32 30 24 C30.66 24 31.32 24 32 24 C32.495 25.98 32.495 25.98 33 28 C21.20807175 28.92017937 21.20807175 28.92017937 18.24609375 26.6640625 C17.1875 25 17.1875 25 16 22 C15.4225 22.99 14.845 23.98 14.25 25 C12.21453664 27.52800988 11.27581584 27.96341584 7.99609375 28.3984375 C4.97809809 28.37705855 2.00648077 28.25893136 -1 28 C-0.49396008 25.83125748 -0.00016187 24.00032373 1 22 C1.66 22 2.32 22 3 22 C3 21.34 3 20.68 3 20 C3.66 20 4.32 20 5 20 C5.28875 19.236875 5.5775 18.47375 5.875 17.6875 C7 15 7 15 9 12 C8.34 12 7.68 12 7 12 C3 6.58823529 3 6.58823529 3 4 C2.34 4 1.68 4 1 4 C0.67 2.68 0.34 1.36 0 0 Z " fill="#D7D7D7" transform="translate(209,250)"/>
<path d="M0 0 C1.0209375 0.01450195 1.0209375 0.01450195 2.0625 0.02929688 C7.03459821 0.14229911 7.03459821 0.14229911 9.375 1.3125 C9.00987253 4.0144433 8.67630763 5.89640852 7.0625 8.125 C5.375 9.3125 5.375 9.3125 1.375 9.3125 C2.32375 9.76625 3.2725 10.22 4.25 10.6875 C7.375 12.3125 7.375 12.3125 9.375 14.3125 C9.74609375 16.5546875 9.74609375 16.5546875 9.8125 19.1875 C9.85246094 20.05117188 9.89242188 20.91484375 9.93359375 21.8046875 C9.375 24.3125 9.375 24.3125 7.2890625 26.609375 C3.7026449 28.70545821 1.44251099 28.78467673 -2.6875 28.6875 C-3.89535156 28.67460937 -5.10320312 28.66171875 -6.34765625 28.6484375 C-9.35452294 28.3402247 -11.09456255 27.89007946 -13.625 26.3125 C-13.07776317 22.93787285 -12.5701 21.23015 -10.625 18.3125 C-7.985 18.6425 -5.345 18.9725 -2.625 19.3125 C-3.2746875 18.98378906 -3.924375 18.65507812 -4.59375 18.31640625 C-11.22404535 14.5408214 -11.22404535 14.5408214 -12.36328125 11.05078125 C-12.4815108 7.2861034 -12.24498364 5.20016888 -10.05078125 2.05859375 C-6.7582673 -0.31138006 -3.89378847 -0.16783571 0 0 Z " fill="#7248D8" transform="translate(283.625,249.6875)"/>
<path d="M0 0 C3.3 0 6.6 0 10 0 C10 3.3 10 6.6 10 10 C11.65 10 13.3 10 15 10 C15 12.64 15 15.28 15 18 C13.35 18 11.7 18 10 18 C10 21.63 10 25.26 10 29 C11.32 28.67 12.64 28.34 14 28 C15.87125129 31.85257619 15.99030231 33.87951136 15 38 C13.2507786 38.08142927 11.50045458 38.13938541 9.75 38.1875 C8.77546875 38.22230469 7.8009375 38.25710938 6.796875 38.29296875 C3.41527071 37.93875042 2.16399027 37.65395033 0 35 C-0.48652495 32.08895905 -0.37544373 29.25319044 -0.25 26.3125 C-0.23195312 25.51521484 -0.21390625 24.71792969 -0.1953125 23.89648438 C-0.14822247 21.93047551 -0.07647899 19.96508506 0 18 C-1.32 18 -2.64 18 -4 18 C-4 15.36 -4 12.72 -4 10 C-2.68 10 -1.36 10 0 10 C0 6.7 0 3.4 0 0 Z " fill="#DFDFDF" transform="translate(246,240)"/>
<path d="M0 0 C1.70736328 0.02320313 1.70736328 0.02320313 3.44921875 0.046875 C6.3125 0.25 6.3125 0.25 8.3125 1.25 C8.67804789 4.53993102 8.57468503 5.88099885 6.625 8.625 C4.3125 10.25 4.3125 10.25 1.75 9.875 C0.5434375 9.565625 0.5434375 9.565625 -0.6875 9.25 C-1.6775 9.91 -2.6675 10.57 -3.6875 11.25 C-4.1875 14.25 -4.1875 14.25 -3.6875 17.25 C-0.83923402 19.61692966 -0.83923402 19.61692966 2.5 18.875 C3.8921875 18.565625 3.8921875 18.565625 5.3125 18.25 C7.60629749 21.69069624 8.3125 22.97290301 8.3125 27.25 C3.89549518 29.45850241 -1.87970965 28.67112032 -6.6875 28.25 C-11.16842 26.16405449 -13.84151065 23.86497339 -15.6875 19.25 C-16.39841959 14.58952712 -16.19971747 10.59559612 -14 6.375 C-10.01600465 0.9912225 -6.60759114 -0.15068623 0 0 Z " fill="#7248DA" transform="translate(310.6875,249.75)"/>
<path d="M0 0 C2.72977064 -0.08126109 5.4571017 -0.14061663 8.1875 -0.1875 C9.34088867 -0.22520508 9.34088867 -0.22520508 10.51757812 -0.26367188 C15.20990424 -0.32408809 18.17160818 -0.01262235 22 3 C25.32805609 6.6978401 26.83135191 9.24605987 27.3125 14.25 C26.94625937 18.64488754 25.90525673 21.66749964 23 25 C18.15114922 29.03470496 14.71701919 29.55938659 8.6875 29.3125 C7.95982422 29.30283203 7.23214844 29.29316406 6.48242188 29.28320312 C1.16931548 29.16931548 1.16931548 29.16931548 0 28 C-0.04063832 26.33382885 -0.042721 24.66611905 0 23 C1.32064453 22.94392578 1.32064453 22.94392578 2.66796875 22.88671875 C4.41013672 22.78810547 4.41013672 22.78810547 6.1875 22.6875 C7.33605469 22.62949219 8.48460937 22.57148438 9.66796875 22.51171875 C13.19492903 21.97006365 15.18119374 21.15919529 18 19 C19.20255931 15.54264199 19.298245 13.77179431 17.9765625 10.3515625 C16.11669896 7.6358997 16.11669896 7.6358997 12.4609375 7.328125 C11.09963912 7.27780463 9.7372257 7.25256057 8.375 7.25 C1.07357143 7.07357143 1.07357143 7.07357143 0 6 C-0.04080783 4.00041636 -0.04254356 1.99954746 0 0 Z " fill="#7249DB" transform="translate(180,251)"/>
<path d="M0 0 C0 2.31 0 4.62 0 7 C-1.04800781 7.03738281 -2.09601563 7.07476562 -3.17578125 7.11328125 C-4.55472305 7.17894515 -5.93362771 7.24539235 -7.3125 7.3125 C-8.34793945 7.34633789 -8.34793945 7.34633789 -9.40429688 7.38085938 C-12.32540565 7.53608738 -14.5042634 7.66589522 -16.96484375 9.32421875 C-18.69582726 12.12645242 -18.2283512 14.80308314 -18 18 C-17.67 18.99 -17.34 19.98 -17 21 C-11.39 21.66 -5.78 22.32 0 23 C1 26 1 26 0 29 C-17.07744875 29.738041 -17.07744875 29.738041 -23 25 C-23 24.01 -23 23.02 -23 22 C-23.66 22 -24.32 22 -25 22 C-26.61869995 16.94156267 -26.39873701 12.38385197 -24.9375 7.3125 C-23.12631187 4.21595255 -21.73740651 2.29044137 -18.515625 0.64453125 C-12.54047657 -0.88636858 -6.11400879 -0.26423087 0 0 Z " fill="#7248DC" transform="translate(176,251)"/>
<path d="M0 0 C5.27323808 -0.68041782 9.39388711 1.75213663 14 4 C14 3.34 14 2.68 14 2 C15.32 2 16.64 2 18 2 C18 2.99 18 3.98 18 5 C18.66 5 19.32 5 20 5 C20.33 4.34 20.66 3.68 21 3 C21 9.6 21 16.2 21 23 C20.34 23 19.68 23 19 23 C17.63838689 23.96113866 16.30144802 24.95884159 15 26 C14.09586327 22.16275828 13.89423102 18.62497726 13.9375 14.6875 C13.94652344 13.61886719 13.95554687 12.55023438 13.96484375 11.44921875 C13.97644531 10.64097656 13.98804688 9.83273437 14 9 C13.34 9 12.68 9 12 9 C12 8.34 12 7.68 12 7 C9.03 6.505 9.03 6.505 6 6 C5.67 6.66 5.34 7.32 5 8 C4.401875 7.814375 3.80375 7.62875 3.1875 7.4375 C0.83591238 6.77906313 0.83591238 6.77906313 -2 8 C-2 8.99 -2 9.98 -2 11 C-2.99 11 -3.98 11 -5 11 C-5.33 11.99 -5.66 12.98 -6 14 C-7.27162597 10.1851221 -6.64661571 8.6068725 -5 5 C-2.875 4.125 -2.875 4.125 -1 4 C-0.67 2.68 -0.34 1.36 0 0 Z " fill="#7347E0" transform="translate(328,251)"/>
<path d="M0 0 C1.65762096 2.13122695 3.11410851 4.20341082 4.4375 6.5625 C6.53521051 9.8349284 8.52275194 11.54861865 12.25 12.6875 C13.11625 12.8421875 13.11625 12.8421875 14 13 C14 13.66 14 14.32 14 15 C12.35 15 10.7 15 9 15 C9 15.66 9 16.32 9 17 C8.236875 17.556875 7.47375 18.11375 6.6875 18.6875 C3.31438066 21.58995152 2.51014985 23.86695832 1 28 C-1 25 -1 25 -1 21 C-1.66 21 -2.32 21 -3 21 C-4.175625 19.7934375 -4.175625 19.7934375 -5.375 18.5625 C-7.81366675 16.18189674 -8.7272326 15.36364082 -12 15 C-12 14.34 -12 13.68 -12 13 C-9.69 12.34 -7.38 11.68 -5 11 C-5 10.34 -5 9.68 -5 9 C-4.34 9 -3.68 9 -3 9 C-3 8.34 -3 7.68 -3 7 C-2.34 7 -1.68 7 -1 7 C-0.67 4.69 -0.34 2.38 0 0 Z " fill="#C8C8C8" transform="translate(320,209)"/>
<path d="M0 0 C3.62521578 0.87727642 5.47198273 1.93100859 8.1953125 4.53125 C8.9469831 8.13559097 8.76046953 11.61950813 8.5703125 15.28125 C8.54324219 16.26480469 8.51617187 17.24835938 8.48828125 18.26171875 C8.41763837 20.68712423 8.31907369 23.10806945 8.1953125 25.53125 C6.52919345 25.573971 4.86148365 25.57188832 3.1953125 25.53125 C1.13608848 23.47202598 1.78103671 19.31416876 1.6328125 16.46875 C1.58962891 15.71013672 1.54644531 14.95152344 1.50195312 14.16992188 C1.39557617 12.29059562 1.29491316 10.41094756 1.1953125 8.53125 C-0.0628125 8.20125 -1.3209375 7.87125 -2.6171875 7.53125 C-3.32488281 7.345625 -4.03257812 7.16 -4.76171875 6.96875 C-6.94538759 6.4265493 -6.94538759 6.4265493 -9.8046875 6.53125 C-9.8046875 4.53125 -9.8046875 4.53125 -8.3046875 2.40625 C-5.47332561 0.28272858 -3.5056346 0.05677141 0 0 Z " fill="#7347DF" transform="translate(374.8046875,250.46875)"/>
<path d="M0 0 C1.85776765 3.13498292 2.20140476 5.37471432 2 9 C1.34 9 0.68 9 0 9 C0 9.99 0 10.98 0 12 C-1.32 12 -2.64 12 -4 12 C-4 12.66 -4 13.32 -4 14 C-5.74965358 14.05429959 -7.49979787 14.09292823 -9.25 14.125 C-10.22453125 14.14820313 -11.1990625 14.17140625 -12.203125 14.1953125 C-15.0196498 13.99862781 -16.60949036 13.44568916 -19 12 C-18.45276317 8.62537285 -17.9451 6.91765 -16 4 C-14.9790625 4.2165625 -14.9790625 4.2165625 -13.9375 4.4375 C-10.63726918 5.06945909 -7.32855574 5.54313941 -4 6 C-4 4.68 -4 3.36 -4 2 C-2.68 1.34 -1.36 0.68 0 0 Z " fill="#7147DA" transform="translate(289,264)"/>
<path d="M0 0 C2.72977064 -0.08126109 5.4571017 -0.14061663 8.1875 -0.1875 C9.34088867 -0.22520508 9.34088867 -0.22520508 10.51757812 -0.26367188 C15.21693236 -0.32417858 18.15117047 0.00646592 22 3 C24.49505962 5.49505962 24.35948376 6.67328888 24.625 10.125 C24.69976562 11.03507812 24.77453125 11.94515625 24.8515625 12.8828125 C24.90054688 13.58148438 24.94953125 14.28015625 25 15 C24.01 15 23.02 15 22 15 C21.731875 14.236875 21.46375 13.47375 21.1875 12.6875 C19.71778382 9.30831202 19.71778382 9.30831202 17 7 C14.21290461 6.80878556 11.64869196 6.7628824 8.875 6.875 C6.24688858 6.95270069 3.63006745 6.99411618 1 7 C0 6 0 6 -0.0625 2.9375 C-0.041875 1.968125 -0.02125 0.99875 0 0 Z " fill="#7348DF" transform="translate(180,251)"/>
<path d="M0 0 C7.92 0 15.84 0 24 0 C24 2.31 24 4.62 24 7 C16.08 7 8.16 7 0 7 C0 4.69 0 2.38 0 0 Z " fill="#583DA0" transform="translate(166,262)"/>
<path d="M0 0 C0.33 0 0.66 0 1 0 C1.99 3.96 2.98 7.92 4 12 C5.32 12 6.64 12 8 12 C8 12.66 8 13.32 8 14 C9.98 14 11.96 14 14 14 C14.33 13.34 14.66 12.68 15 12 C14.01 12 13.02 12 12 12 C12 11.34 12 10.68 12 10 C10.35 10 8.7 10 7 10 C7.33 9.34 7.66 8.68 8 8 C8.66 8 9.32 8 10 8 C10 5.69 10 3.38 10 1 C10.33 1 10.66 1 11 1 C11.66 3.31 12.32 5.62 13 8 C16.28696233 8.79953138 17.71023192 9.09658936 21 8 C23.29379749 11.44069624 24 12.72290301 24 17 C19.58299518 19.20850241 13.80779035 18.42112032 9 18 C4.51908 15.91405449 1.84598935 13.61497339 0 9 C-0.22869139 5.98127368 -0.17766109 3.02023846 0 0 Z " fill="#7249D9" transform="translate(295,260)"/>
<path d="M0 0 C0 2.31 0 4.62 0 7 C-1.04800781 7.04898437 -2.09601563 7.09796875 -3.17578125 7.1484375 C-4.55471354 7.22348143 -5.9336185 7.29902857 -7.3125 7.375 C-8.34793945 7.42140625 -8.34793945 7.42140625 -9.40429688 7.46875 C-13.06990789 7.68124919 -14.87900792 7.91933861 -18 10 C-18 8.35 -18 6.7 -18 5 C-14.57767028 3.85922343 -11.91326783 3.90184883 -8.3125 3.9375 C-6.54326172 3.95103516 -6.54326172 3.95103516 -4.73828125 3.96484375 C-3.83464844 3.97644531 -2.93101562 3.98804688 -2 4 C-2 3.34 -2 2.68 -2 2 C-4.75460108 2.20148283 -7.50001913 2.43485948 -10.25 2.6875 C-11.02730469 2.74099609 -11.80460938 2.79449219 -12.60546875 2.84960938 C-16.58080946 3.24034799 -18.47269458 3.52820042 -21.5234375 6.2578125 C-23.1125974 9.20910946 -23.48552823 10.86662916 -23.375 14.1875 C-23.36210937 15.04730469 -23.34921875 15.90710938 -23.3359375 16.79296875 C-23.1921604 19.20293976 -23.1921604 19.20293976 -21 21 C-21 22.32 -21 23.64 -21 25 C-21.66 25 -22.32 25 -23 25 C-23 24.01 -23 23.02 -23 22 C-23.66 22 -24.32 22 -25 22 C-26.61869995 16.94156267 -26.39873701 12.38385197 -24.9375 7.3125 C-23.12631187 4.21595255 -21.73740651 2.29044137 -18.515625 0.64453125 C-12.54047657 -0.88636858 -6.11400879 -0.26423087 0 0 Z " fill="#5F40AF" transform="translate(176,251)"/>
<path d="M0 0 C0.66 0.33 1.32 0.66 2 1 C1.979375 2.093125 1.95875 3.18625 1.9375 4.3125 C1.81455548 7.94384191 1.81455548 7.94384191 3 11 C8.61 11.66 14.22 12.32 20 13 C21 16 21 16 20 19 C17.43685501 19.08132187 14.87631582 19.14064175 12.3125 19.1875 C11.59126953 19.21263672 10.87003906 19.23777344 10.12695312 19.26367188 C5.52410662 19.32672457 2.69692767 18.77816458 -1 16 C2.05263664 15.01879536 3.94736336 15.01879536 7 16 C7 15.34 7 14.68 7 14 C6.01 14 5.02 14 4 14 C4 13.34 4 12.68 4 12 C3.34 12 2.68 12 2 12 C0.375 11 0.375 11 -1 9 C-1.32089806 6.24470289 -1.18034419 3.79533501 -1 1 C-0.67 0.67 -0.34 0.34 0 0 Z " fill="#6541BC" transform="translate(156,261)"/>
<path d="M0 0 C0 8.91 0 17.82 0 27 C-2.31 27 -4.62 27 -7 27 C-6.03114628 25.31503702 -5.03013277 23.64821244 -4 22 C-3.67 22 -3.34 22 -3 22 C-3 16.72 -3 11.44 -3 6 C-3.66 6 -4.32 6 -5 6 C-5 5.01 -5 4.02 -5 3 C-6.32 3 -7.64 3 -9 3 C-9 3.66 -9 4.32 -9 5 C-12.34373475 4.44271087 -15.03312999 3.64826111 -18 2 C-18 1.67 -18 1.34 -18 1 C-11.81546408 0.08377246 -6.38333296 0 0 0 Z " fill="#6B48C7" transform="translate(351,250)"/>
<path d="M0 0 C7.18781726 -0.60913706 7.18781726 -0.60913706 11 2.25 C13 5 13 5 13 9 C13.99 9 14.98 9 16 9 C15.67 6.36 15.34 3.72 15 1 C15.66 1.33 16.32 1.66 17 2 C18.36161941 6.08485823 18.90744411 9.86256057 17.17578125 13.94140625 C15.6889782 16.58891057 14.14956611 18.85043389 12 21 C11.01 21 10.02 21 9 21 C9 20.34 9 19.68 9 19 C9.99 19 10.98 19 12 19 C12.33 17.02 12.66 15.04 13 13 C11.68 13.33 10.36 13.66 9 14 C9.226875 12.948125 9.45375 11.89625 9.6875 10.8125 C10.25089256 7.09653262 10.25089256 7.09653262 9 4.125 C6.23671293 1.18900749 3.92644911 1.22225184 0 1 C0 0.67 0 0.34 0 0 Z " fill="#52369B" transform="translate(189,257)"/>
<path d="M0 0 C1.17949219 0.01804688 2.35898437 0.03609375 3.57421875 0.0546875 C4.92966797 0.08949219 4.92966797 0.08949219 6.3125 0.125 C6.3125 0.455 6.3125 0.785 6.3125 1.125 C0.3725 1.62 0.3725 1.62 -5.6875 2.125 C-6.0175 3.115 -6.3475 4.105 -6.6875 5.125 C-8.75 5.8125 -8.75 5.8125 -10.6875 6.125 C-11.76609862 13.66547904 -11.76609862 13.66547904 -10.6875 21.125 C-10.0275 21.125 -9.3675 21.125 -8.6875 21.125 C-8.3575 20.135 -8.0275 19.145 -7.6875 18.125 C-6.6875 20.125 -6.6875 20.125 -6.3125 23.125 C-5.98989632 26.42998897 -5.98989632 26.42998897 -2.6875 28.125 C-6.06212715 27.57776317 -7.76985 27.0701 -10.6875 25.125 C-10.6875 24.465 -10.6875 23.805 -10.6875 23.125 C-11.3475 23.125 -12.0075 23.125 -12.6875 23.125 C-14.55943986 17.83952274 -15.24105932 13.59574818 -13.6875 8.125 C-10.05368555 1.58413399 -7.41727295 -0.14687669 0 0 Z " fill="#53389D" transform="translate(333.6875,249.875)"/>
<path d="M0 0 C3.0625 0.125 3.0625 0.125 5.0625 1.125 C5.0625 1.785 5.0625 2.445 5.0625 3.125 C6.3825 3.125 7.7025 3.125 9.0625 3.125 C9.0625 4.115 9.0625 5.105 9.0625 6.125 C5.4325 6.125 1.8025 6.125 -1.9375 6.125 C-2.2675 7.445 -2.5975 8.765 -2.9375 10.125 C-3.9275 10.125 -4.9175 10.125 -5.9375 10.125 C-5.62951674 8.64488629 -5.315982 7.16592675 -5 5.6875 C-4.82597656 4.86378906 -4.65195312 4.04007813 -4.47265625 3.19140625 C-3.64152385 -0.01785682 -3.4529457 0.14693386 0 0 Z " fill="#7447DF" transform="translate(280.9375,249.875)"/>
<path d="M0 0 C2.72977064 -0.08126109 5.4571017 -0.14061663 8.1875 -0.1875 C9.34088867 -0.22520508 9.34088867 -0.22520508 10.51757812 -0.26367188 C15.18969597 -0.3238279 18.2030603 -0.03755176 22 3 C23.3125 5.1875 23.3125 5.1875 24 7 C20.27589064 6.35791218 20.27589064 6.35791218 18.84375 4.5 C15.99830855 2.18506458 12.83498408 2.42761386 9.3125 2.3125 C8.2596582 2.26125977 8.2596582 2.26125977 7.18554688 2.20898438 C5.45758613 2.12670053 3.72881928 2.0616676 2 2 C2 2.99 2 3.98 2 5 C3.65 5.33 5.3 5.66 7 6 C7 6.33 7 6.66 7 7 C5.00045254 7.04254356 2.99958364 7.04080783 1 7 C0 6 0 6 -0.0625 2.9375 C-0.041875 1.968125 -0.02125 0.99875 0 0 Z " fill="#6749B9" transform="translate(180,251)"/>
<path d="M0 0 C0.33 0 0.66 0 1 0 C1 7.59 1 15.18 1 23 C-2.3 23 -5.6 23 -9 23 C-9 17.06 -9 11.12 -9 5 C-9.66 5 -10.32 5 -11 5 C-11 4.34 -11 3.68 -11 3 C-12.32 2.67 -13.64 2.34 -15 2 C-8.125 2.875 -8.125 2.875 -7 4 C-6.54209443 10.03357931 -7.2408086 16.02136775 -8 22 C-5.36 22 -2.72 22 0 22 C0 14.74 0 7.48 0 0 Z " fill="#5A40A1" transform="translate(384,255)"/>
<path d="M0 0 C1.74965358 -0.05429959 3.49979787 -0.09292823 5.25 -0.125 C6.22453125 -0.14820313 7.1990625 -0.17140625 8.203125 -0.1953125 C11.05069951 0.00354047 12.63037132 0.44561054 15 2 C16.27861615 4.55723229 16.11336609 6.36737102 16.09765625 9.2265625 C16.09443359 10.2578125 16.09121094 11.2890625 16.08789062 12.3515625 C16.07951172 13.43179687 16.07113281 14.51203125 16.0625 15.625 C16.05798828 16.71296875 16.05347656 17.8009375 16.04882812 18.921875 C16.03701776 21.61463789 16.02054778 24.30729188 16 27 C13.36 27 10.72 27 8 27 C8 24.03 8 21.06 8 18 C8.33 18 8.66 18 9 18 C9.33 20.31 9.66 22.62 10 25 C11.65 25.33 13.3 25.66 15 26 C15 19.07 15 12.14 15 5 C12.525 4.01 12.525 4.01 10 3 C9.67 2.67 9.34 2.34 9 2 C7.31391034 1.92794489 5.62499341 1.91613932 3.9375 1.9375 C3.01839844 1.94652344 2.09929687 1.95554688 1.15234375 1.96484375 C0.44207031 1.97644531 -0.26820313 1.98804688 -1 2 C-0.67 1.34 -0.34 0.68 0 0 Z " fill="#6D4ACD" transform="translate(368,250)"/>
<path d="M0 0 C0.69738281 0.00451172 1.39476562 0.00902344 2.11328125 0.01367188 C3.82555803 0.0253998 5.53779033 0.04333347 7.25 0.0625 C7.25 1.0525 7.25 2.0425 7.25 3.0625 C3.25204108 4.01869733 -0.45803922 4.1664592 -4.5625 4.125 C-5.72394531 4.11597656 -6.88539063 4.10695313 -8.08203125 4.09765625 C-8.96246094 4.08605469 -9.84289062 4.07445312 -10.75 4.0625 C-11.08 3.0725 -11.41 2.0825 -11.75 1.0625 C-7.88276369 -0.20332219 -4.01848738 -0.0493765 0 0 Z " fill="#7248DC" transform="translate(180.75,263.9375)"/>
<path d="M0 0 C0 0.99 0 1.98 0 3 C-1 4 -1 4 -4.16015625 4.09765625 C-6.09181641 4.08025391 -6.09181641 4.08025391 -8.0625 4.0625 C-9.35285156 4.05347656 -10.64320313 4.04445313 -11.97265625 4.03515625 C-12.97167969 4.02355469 -13.97070312 4.01195312 -15 4 C-15 4.99 -15 5.98 -15 7 C-9.72 7 -4.44 7 1 7 C0.67 7.66 0.34 8.32 0 9 C-2.64590014 9.02684679 -5.29153096 9.04676357 -7.9375 9.0625 C-9.06961914 9.07506836 -9.06961914 9.07506836 -10.22460938 9.08789062 C-12.14994313 9.09652441 -14.07535581 9.05224333 -16 9 C-17 8 -17 8 -17.0625 5.4375 C-17.041875 4.633125 -17.02125 3.82875 -17 3 C-16.10796875 2.95101563 -15.2159375 2.90203125 -14.296875 2.8515625 C-12.54117188 2.73941406 -12.54117188 2.73941406 -10.75 2.625 C-9.00976562 2.52058594 -9.00976562 2.52058594 -7.234375 2.4140625 C-4.29305666 2.03751692 -2.50050989 1.5225877 0 0 Z " fill="#4C2E88" transform="translate(197,271)"/>
<path d="M0 0 C0.33 0 0.66 0 1 0 C1.99 3.96 2.98 7.92 4 12 C5.32 12 6.64 12 8 12 C8 12.66 8 13.32 8 14 C9.65 14.33 11.3 14.66 13 15 C13 15.66 13 16.32 13 17 C16.3 16.67 19.6 16.34 23 16 C23.33 15.01 23.66 14.02 24 13 C24 14.32 24 15.64 24 17 C19.58299518 19.20850241 13.80779035 18.42112032 9 18 C4.51908 15.91405449 1.84598935 13.61497339 0 9 C-0.22869139 5.98127368 -0.17766109 3.02023846 0 0 Z " fill="#4F3597" transform="translate(295,260)"/>
<path d="M0 0 C2.97 0.495 2.97 0.495 6 1 C6.36554789 4.28993102 6.26218503 5.63099885 4.3125 8.375 C2 10 2 10 -0.5 9.625 C-1.325 9.41875 -2.15 9.2125 -3 9 C-5.26857146 9.84077872 -5.26857146 9.84077872 -7 11 C-6.67 9.02 -6.34 7.04 -6 5 C-3.69 4.34 -1.38 3.68 1 3 C1 3.99 1 4.98 1 6 C1.66 6 2.32 6 3 6 C3.33 4.68 3.66 3.36 4 2 C2.35 2 0.7 2 -1 2 C-0.67 1.34 -0.34 0.68 0 0 Z " fill="#633FB8" transform="translate(313,250)"/>
<path d="M0 0 C0.8971875 0.4640625 0.8971875 0.4640625 1.8125 0.9375 C1.8125 1.5975 1.8125 2.2575 1.8125 2.9375 C2.8025 2.9375 3.7925 2.9375 4.8125 2.9375 C4.4825 3.9275 4.1525 4.9175 3.8125 5.9375 C-0.1004896 5.39150145 -3.69064454 4.83579296 -7.1875 2.9375 C-8 0.8125 -8 0.8125 -8.1875 -1.0625 C-4.57814414 -2.26561862 -3.32690801 -1.61592675 0 0 Z " fill="#7347DF" transform="translate(305.1875,269.0625)"/>
<path d="M0 0 C4.75 0.75 4.75 0.75 7 3 C7.55993931 6.38321226 7.54584558 9.61575742 7 13 C4.6875 15.625 4.6875 15.625 2 17 C1.01 17 0.02 17 -1 17 C-1 16.34 -1 15.68 -1 15 C0.32 15 1.64 15 3 15 C3 14.01 3 13.02 3 12 C3.66 12 4.32 12 5 12 C4.745504 10.51793505 4.47088238 9.03931385 4.1875 7.5625 C3.96126953 6.32693359 3.96126953 6.32693359 3.73046875 5.06640625 C3.48941406 4.38449219 3.24835938 3.70257813 3 3 C2.01 2.67 1.02 2.34 0 2 C0 1.34 0 0.68 0 0 Z " fill="#593EA4" transform="translate(286,261)"/>
<path d="M0 0 C0.66 0.33 1.32 0.66 2 1 C1.3503125 1.58394531 1.3503125 1.58394531 0.6875 2.1796875 C-2.86991045 5.75356744 -4.44035958 8.17596889 -4.5 13.3125 C-4.40770639 17.12238933 -4.40770639 17.12238933 -2 20 C-2 21.32 -2 22.64 -2 24 C-2.66 24 -3.32 24 -4 24 C-4 23.01 -4 22.02 -4 21 C-4.66 21 -5.32 21 -6 21 C-7.64144133 15.87049583 -7.44509542 11.33528627 -5.75 6.25 C-4.08103812 3.15049937 -2.98895306 1.7521449 0 0 Z " fill="#543B98" transform="translate(157,252)"/>
<path d="M0 0 C0.66 0.33 1.32 0.66 2 1 C1.67 2.65 1.34 4.3 1 6 C-1.56314499 6.08132187 -4.12368418 6.14064175 -6.6875 6.1875 C-7.7693457 6.22520508 -7.7693457 6.22520508 -8.87304688 6.26367188 C-13.47589338 6.32672457 -16.30307233 5.77816458 -20 3 C-16.25 1.875 -16.25 1.875 -14 3 C-11.62876754 3.23029956 -9.25258057 3.41119942 -6.875 3.5625 C-5.59367188 3.64628906 -4.31234375 3.73007812 -2.9921875 3.81640625 C-1.51105469 3.90728516 -1.51105469 3.90728516 0 4 C0 2.68 0 1.36 0 0 Z " fill="#473085" transform="translate(175,274)"/>
<path d="M0 0 C3.62528568 -0.20140476 5.86501708 0.14223235 9 2 C8.79375 2.61875 8.5875 3.2375 8.375 3.875 C8.25125 4.57625 8.1275 5.2775 8 6 C8.66 6.66 9.32 7.32 10 8 C4.62312634 7.65310493 4.62312634 7.65310493 2 7 C-0.01788836 4.47763955 0 3.24903049 0 0 Z " fill="#7647E2" transform="translate(326,270)"/>
<path d="M0 0 C6.75 -0.125 6.75 -0.125 9 1 C8.65447612 3.55687669 8.24912987 5.57501375 6.9375 7.8125 C3.75444301 9.7634059 0.67569327 9.1807718 -3 9 C-3 8.34 -3 7.68 -3 7 C1.455 6.505 1.455 6.505 6 6 C6 5.01 6 4.02 6 3 C4.68 3 3.36 3 2 3 C2 2.34 2 1.68 2 1 C1.34 0.67 0.68 0.34 0 0 Z " fill="#553B9F" transform="translate(284,250)"/>
<path d="M0 0 C1.65 0.33 3.3 0.66 5 1 C5 1.33 5 1.66 5 2 C3.35 2 1.7 2 0 2 C0.19471111 3.94999129 0.19471111 3.94999129 1 6 C2.9837767 7.28436734 2.9837767 7.28436734 5 8 C5 8.66 5 9.32 5 10 C-0.75 9.125 -0.75 9.125 -3 8 C-2.45276317 4.62537285 -1.9451 2.91765 0 0 Z " fill="#553E9B" transform="translate(273,268)"/>
<path d="M0 0 C0.33 0.66 0.66 1.32 1 2 C3.31 2 5.62 2 8 2 C7.67 2.99 7.34 3.98 7 5 C6.236875 4.814375 5.47375 4.62875 4.6875 4.4375 C1.91032625 3.77180827 1.91032625 3.77180827 -1 5 C-1 7.64 -1 10.28 -1 13 C-1.66 12.67 -2.32 12.34 -3 12 C-3.6328125 9.93359375 -3.6328125 9.93359375 -4.125 7.4375 C-4.29257812 6.61121094 -4.46015625 5.78492188 -4.6328125 4.93359375 C-4.75398438 4.29550781 -4.87515625 3.65742188 -5 3 C-4.34 2.67 -3.68 2.34 -3 2 C-3 2.66 -3 3.32 -3 4 C-2.01 4 -1.02 4 0 4 C0 2.68 0 1.36 0 0 Z " fill="#53369D" transform="translate(333,255)"/>
<path d="M0 0 C3.0625 0.125 3.0625 0.125 5.0625 1.125 C5.0625 1.785 5.0625 2.445 5.0625 3.125 C6.3825 3.125 7.7025 3.125 9.0625 3.125 C9.0625 4.115 9.0625 5.105 9.0625 6.125 C7.4125 6.125 5.7625 6.125 4.0625 6.125 C4.0625 5.465 4.0625 4.805 4.0625 4.125 C2.7425 3.465 1.4225 2.805 0.0625 2.125 C-0.2675 2.785 -0.5975 3.445 -0.9375 4.125 C-1.9275 3.135 -2.9175 2.145 -3.9375 1.125 C-2.9375 0.125 -2.9375 0.125 0 0 Z " fill="#7048D0" transform="translate(280.9375,249.875)"/>
<path d="M0 0 C0.66 0.33 1.32 0.66 2 1 C1.67 2.65 1.34 4.3 1 6 C0.01 6 -0.98 6 -2 6 C-2 6.928125 -2 7.85625 -2 8.8125 C-2 10.875 -2 12.9375 -2 15 C-4.39286884 12.60713116 -4.32050616 11.90552906 -4.375 8.625 C-4.31898675 5.14657747 -4.21688729 4.27788684 -2 1.4375 C-1.34 0.963125 -0.68 0.48875 0 0 Z " fill="#543894" transform="translate(276,250)"/>
<path d="M0 0 C1.74965358 -0.05429959 3.49979787 -0.09292823 5.25 -0.125 C6.22453125 -0.14820313 7.1990625 -0.17140625 8.203125 -0.1953125 C11.06627213 0.00462794 12.65155238 0.37332298 15 2 C15.33 2.99 15.66 3.98 16 5 C13.03824877 4.38722388 11.61941217 3.74627478 9 2 C6.48415109 1.75849227 6.48415109 1.75849227 3.8125 1.875 C2.46091797 1.90207031 2.46091797 1.90207031 1.08203125 1.9296875 C0.05142578 1.96449219 0.05142578 1.96449219 -1 2 C-0.67 1.34 -0.34 0.68 0 0 Z " fill="#573DA1" transform="translate(368,250)"/>
<path d="M0 0 C2.97 0.495 2.97 0.495 6 1 C6.1875 3.375 6.1875 3.375 6 6 C5.01 6.66 4.02 7.32 3 8 C3.33 6.02 3.66 4.04 4 2 C2.35 2 0.7 2 -1 2 C-0.67 1.34 -0.34 0.68 0 0 Z " fill="#50368D" transform="translate(313,250)"/>
<path d="M0 0 C0 0.99 0 1.98 0 3 C-1 4 -1 4 -4.16015625 4.09765625 C-6.09181641 4.08025391 -6.09181641 4.08025391 -8.0625 4.0625 C-9.35285156 4.05347656 -10.64320313 4.04445313 -11.97265625 4.03515625 C-12.97167969 4.02355469 -13.97070312 4.01195312 -15 4 C-15 3.67 -15 3.34 -15 3 C-14.25234375 2.95101563 -13.5046875 2.90203125 -12.734375 2.8515625 C-11.74953125 2.77679688 -10.7646875 2.70203125 -9.75 2.625 C-8.28820312 2.52058594 -8.28820312 2.52058594 -6.796875 2.4140625 C-4.10366811 2.01534751 -2.33036721 1.36492937 0 0 Z " fill="#5D40A9" transform="translate(197,271)"/>
<path d="M0 0 C3.96 0 7.92 0 12 0 C12.33 0.66 12.66 1.32 13 2 C4.57142857 3.42857143 4.57142857 3.42857143 0 1 C0 0.67 0 0.34 0 0 Z " fill="#6A47C0" transform="translate(182,255)"/>
<path d="M0 0 C3.39914975 1.13304992 4.05254451 2.12518475 6 5 C-0.15234375 4.4140625 -0.15234375 4.4140625 -2 4 C-2.33 3.34 -2.66 2.68 -3 2 C-2.01 1.34 -1.02 0.68 0 0 Z " fill="#6E48CE" transform="translate(330,273)"/>
<path d="M0 0 C2.475 0.495 2.475 0.495 5 1 C4.67 1.99 4.34 2.98 4 4 C4.99 4 5.98 4 7 4 C7 4.66 7 5.32 7 6 C5.35 6 3.7 6 2 6 C1.34 4.02 0.68 2.04 0 0 Z " fill="#6940C0" transform="translate(282,259)"/>
<path d="M0 0 C0.33 0.66 0.66 1.32 1 2 C0.34 2 -0.32 2 -1 2 C-1.33 2.99 -1.66 3.98 -2 5 C-2.99 5 -3.98 5 -5 5 C-5.66 6.32 -6.32 7.64 -7 9 C-7 6 -7 6 -4.625 3.375 C-2 1 -2 1 0 0 Z " fill="#503691" transform="translate(304,250)"/>
<path d="M0 0 C2 2 2 2 2 5 C3.65 5.33 5.3 5.66 7 6 C7 6.33 7 6.66 7 7 C5.00045254 7.04254356 2.99958364 7.04080783 1 7 C0 6 0 6 -0.0625 2.9375 C-0.041875 1.968125 -0.02125 0.99875 0 0 Z " fill="#431F74" transform="translate(180,251)"/>
<path d="M0 0 C0.350625 0.515625 0.70125 1.03125 1.0625 1.5625 C0.7325 2.2225 0.4025 2.8825 0.0625 3.5625 C-0.2675 3.2325 -0.5975 2.9025 -0.9375 2.5625 C-2.28497084 2.33174918 -3.64127565 2.15096937 -5 2 C-6.299375 1.855625 -7.59875 1.71125 -8.9375 1.5625 C-8.9375 0.9025 -8.9375 0.2425 -8.9375 -0.4375 C-2.41442308 -1.79134615 -2.41442308 -1.79134615 0 0 Z " fill="#4E368E" transform="translate(316.9375,269.4375)"/>
<path d="M0 0 C0.33 0 0.66 0 1 0 C1.66 2.97 2.32 5.94 3 9 C1.02 9 -0.96 9 -3 9 C-2.67 8.34 -2.34 7.68 -2 7 C-1.34 7 -0.68 7 0 7 C0 4.69 0 2.38 0 0 Z " fill="#6746C2" transform="translate(305,261)"/>
<path d="M0 0 C0 0.66 0 1.32 0 2 C0.66 2.66 1.32 3.32 2 4 C-1.76687864 4 -2.91190305 3.76462683 -6 2 C-3 0 -3 0 0 0 Z " fill="#5C3AB1" transform="translate(282,264)"/>
<path d="M0 0 C3.24271506 0.5590888 4.93057424 1.4132178 7 4 C7 4.66 7 5.32 7 6 C3.75728494 5.4409112 2.06942576 4.5867822 0 2 C0 1.34 0 0.68 0 0 Z " fill="#523793" transform="translate(197,252)"/>
<path d="M0 0 C-0.33 0.99 -0.66 1.98 -1 3 C-3.97 3 -6.94 3 -10 3 C-10 2.34 -10 1.68 -10 1 C-6.59437148 0.22157062 -3.49234244 -0.09978121 0 0 Z " fill="#442B88" transform="translate(291,256)"/>
</svg>
